<svg width="1080" height="1080" viewBox="0 0 1080 1080" fill="none" xmlns="http://www.w3.org/2000/svg">
<path d="M182.136 562.351C143.431 340.285 314.349 137 539.764 137V137C765.337 137 936.295 340.556 897.324 562.737L836.5 909.5L237.5 880L182.136 562.351Z" fill="url(#paint0_linear_103_2)"/>
<path d="M140 905C140 875.177 164.177 851 194 851H879C912.137 851 939 877.863 939 911V934C939 963.271 915.271 987 886 987H208C170.445 987 140 956.555 140 919V905Z" fill="url(#paint1_linear_103_2)"/>
<path d="M622 864C613.163 864 606 856.837 606 848V848C606 839.163 613.163 832 622 832H675H728C736.837 832 744 839.163 744 848V848C744 856.837 736.837 864 728 864H622Z" fill="#1F1F1F"/>
<path d="M622 783C613.163 783 606 775.837 606 767V767C606 758.163 613.163 751 622 751H700.5H779C787.837 751 795 758.163 795 767V767C795 775.837 787.837 783 779 783H622Z" fill="#3F3F3F"/>
<path d="M622 702C613.163 702 606 694.837 606 686V686C606 677.163 613.163 670 622 670H700.5H779C787.837 670 795 677.163 795 686V686C795 694.837 787.837 702 779 702H622Z" fill="#6C6C6C"/>
<path d="M629.737 522.685C621.202 524.972 612.428 519.907 610.141 511.372V511.372C607.854 502.836 612.919 494.063 621.455 491.776L697.28 471.458L773.105 451.141C781.641 448.854 790.414 453.919 792.701 462.455V462.455C794.988 470.99 789.923 479.764 781.387 482.051L629.737 522.685Z" fill="#A7A7A7"/>
<path d="M391.665 875.686C372.021 875.686 356.536 858.96 358.048 839.375L380.494 548.428C380.919 542.931 385.504 538.686 391.018 538.686V538.686C396.514 538.686 401.09 542.904 401.537 548.382L425.271 839.226C426.873 858.864 411.368 875.686 391.665 875.686V875.686Z" fill="url(#paint2_linear_103_2)"/>
<rect width="242.861" height="7.27861" rx="3.63931" transform="matrix(0.251336 -0.9679 0.963855 0.266427 246.435 679.076)" fill="#5E5E5E"/>
<rect width="368.235" height="7.40448" rx="3.70224" transform="matrix(0.865697 -0.500568 0.484363 0.874867 372.328 369.327)" fill="#5E5E5E"/>
<rect width="288.096" height="7.14488" rx="3.57244" transform="matrix(0 -1 0.999883 -0.0152937 691.848 472.872)" fill="#5E5E5E"/>
<rect width="98.3128" height="7.3318" rx="3.6659" transform="matrix(0.633594 -0.773666 0.758281 0.651928 304 438.061)" fill="#5E5E5E"/>
<rect width="21.8982" height="144.279" rx="10.9491" transform="matrix(0.633594 -0.773666 0.758281 0.651928 348.76 367.942)" fill="url(#paint3_linear_103_2)"/>
<rect width="21.8982" height="144.279" rx="10.9491" transform="matrix(0.633594 -0.773666 0.758281 0.651928 291 441.883)" fill="url(#paint4_linear_103_2)"/>
<path d="M254.682 690.747C245.469 681.942 244.953 667.162 253.53 657.736L684.736 183.84C687.626 180.664 692.527 180.622 695.479 183.747V183.747C698.128 186.552 698.276 190.954 695.821 193.93L287.629 688.775C279.229 698.957 264.213 699.856 254.682 690.747V690.747Z" fill="url(#paint5_linear_103_2)"/>
<rect x="322.246" y="825.686" width="140" height="50" rx="25" fill="url(#paint6_linear_103_2)"/>
<defs>
<linearGradient id="paint0_linear_103_2" x1="540" y1="137" x2="540" y2="897" gradientUnits="userSpaceOnUse">
<stop stop-color="#33AFE3"/>
<stop offset="1" stop-color="#3A7BDD"/>
</linearGradient>
<linearGradient id="paint1_linear_103_2" x1="539.5" y1="851" x2="539.5" y2="987" gradientUnits="userSpaceOnUse">
<stop stop-color="#5C5C5C"/>
<stop offset="1" stop-color="#363636"/>
</linearGradient>
<linearGradient id="paint2_linear_103_2" x1="355.246" y1="707.186" x2="428.246" y2="707.186" gradientUnits="userSpaceOnUse">
<stop stop-color="#FFA24B"/>
<stop offset="1" stop-color="#BF8249"/>
</linearGradient>
<linearGradient id="paint3_linear_103_2" x1="10.9491" y1="0" x2="10.9491" y2="144.279" gradientUnits="userSpaceOnUse">
<stop stop-color="#FFA24B"/>
<stop offset="1" stop-color="#BF8249"/>
</linearGradient>
<linearGradient id="paint4_linear_103_2" x1="10.9491" y1="0" x2="10.9491" y2="144.279" gradientUnits="userSpaceOnUse">
<stop stop-color="#FFA24B"/>
<stop offset="1" stop-color="#BF8249"/>
</linearGradient>
<linearGradient id="paint5_linear_103_2" x1="464.025" y1="426.402" x2="499" y2="458.226" gradientUnits="userSpaceOnUse">
<stop stop-color="#FFB84E"/>
<stop offset="1" stop-color="#CA9342"/>
</linearGradient>
<linearGradient id="paint6_linear_103_2" x1="392.246" y1="825.686" x2="392.246" y2="875.686" gradientUnits="userSpaceOnUse">
<stop stop-color="#FFB84E"/>
<stop offset="1" stop-color="#CA9342"/>
</linearGradient>
</defs>
</svg>
