<svg width="1080" height="1080" viewBox="0 0 1080 1080" fill="none" xmlns="http://www.w3.org/2000/svg">
<path d="M182.136 562.351C143.431 340.285 314.349 137 539.764 137V137C765.337 137 936.295 340.556 897.324 562.737L836.5 909.5L237.5 880L182.136 562.351Z" fill="url(#paint0_linear_103_46)"/>
<path d="M140 905C140 875.177 164.177 851 194 851H879C912.137 851 939 877.863 939 911V934C939 963.271 915.271 987 886 987H208C170.445 987 140 956.555 140 919V905Z" fill="url(#paint1_linear_103_46)"/>
<rect x="172" y="304" width="735" height="517.927" rx="20" fill="#E4E4E4"/>
<path d="M172 324C172 312.954 180.954 304 192 304H217.699V821.927H192C180.954 821.927 172 812.973 172 801.927V324Z" fill="#171717"/>
<path d="M172 324C172 312.954 180.954 304 192 304H887C898.046 304 907 312.954 907 324V342.083H172V324Z" fill="#222222"/>
<path d="M447.5 742C437.283 742 429 733.717 429 723.5V723.5C429 713.283 437.283 705 447.5 705H510.5H573.5C583.717 705 592 713.283 592 723.5V723.5C592 733.717 583.717 742 573.5 742H447.5Z" fill="#1F1F1F"/>
<path d="M447.5 646C437.283 646 429 637.717 429 627.5V627.5C429 617.283 437.283 609 447.5 609H540H632.5C642.717 609 651 617.283 651 627.5V627.5C651 637.717 642.717 646 632.5 646H447.5Z" fill="#3F3F3F"/>
<path d="M447 551C437.059 551 429 542.941 429 533V533C429 523.059 437.059 515 447 515H540H633C642.941 515 651 523.059 651 533V533C651 542.941 642.941 551 633 551H447Z" fill="#6C6C6C"/>
<path d="M447 455C437.059 455 429 446.941 429 437V437C429 427.059 437.059 419 447 419H540H633C642.941 419 651 427.059 651 437V437C651 446.941 642.941 455 633 455H447Z" fill="#A7A7A7"/>
<rect x="770.561" y="254.975" width="23.6601" height="153.791" rx="11.83" transform="rotate(38.75 770.561 254.975)" fill="#AEAEAE"/>
<path d="M640.762 404.919C634.727 405.58 629.135 401.139 630.231 395.167C630.916 391.432 632.164 387.799 633.949 384.394C637.452 377.714 642.868 372.213 649.512 368.588C656.156 364.962 663.73 363.375 671.277 364.025C678.823 364.676 686.002 367.537 691.907 372.244C697.812 376.952 702.177 383.296 704.45 390.474C706.723 397.653 706.802 405.342 704.677 412.571C702.552 419.8 698.319 426.243 692.512 431.086C689.517 433.584 686.172 435.599 682.602 437.077C677.028 439.385 671.523 434.917 670.866 428.92L670.722 427.61C670.145 422.337 674.317 417.757 678.391 414.359V414.359C680.865 412.296 682.668 409.551 683.573 406.472C684.478 403.392 684.445 400.117 683.476 397.059C682.508 394.001 680.649 391.299 678.133 389.293C675.618 387.288 672.56 386.069 669.345 385.792C666.131 385.515 662.904 386.191 660.074 387.736C657.243 389.28 654.936 391.623 653.444 394.469V394.469C650.993 399.143 647.438 404.188 642.191 404.762L640.762 404.919Z" fill="#AEAEAE"/>
<path d="M821.95 240.981C827.986 240.32 833.578 244.76 832.482 250.732C831.796 254.468 830.549 258.101 828.763 261.506C825.261 268.186 819.845 273.686 813.201 277.312C806.556 280.937 798.982 282.525 791.436 281.874C783.889 281.223 776.71 278.363 770.805 273.655C764.9 268.947 760.536 262.603 758.263 255.425C755.99 248.247 755.911 240.558 758.035 233.329C760.16 226.1 764.394 219.657 770.2 214.814C773.196 212.315 776.54 210.301 780.111 208.823C785.685 206.515 791.19 210.982 791.846 216.979L791.99 218.29C792.567 223.563 788.395 228.143 784.321 231.541V231.541C781.848 233.604 780.044 236.349 779.139 239.428C778.234 242.507 778.268 245.783 779.236 248.841C780.204 251.898 782.064 254.601 784.579 256.606C787.094 258.612 790.153 259.83 793.367 260.107C796.582 260.385 799.808 259.708 802.639 258.164C805.469 256.62 807.776 254.276 809.268 251.431V251.431C811.719 246.757 815.274 241.712 820.521 241.137L821.95 240.981Z" fill="#AEAEAE"/>
<path d="M315.929 433.776C312.806 430.427 312.989 425.18 316.339 422.057V422.057C319.688 418.933 324.935 419.117 328.058 422.466L417.592 518.48L405.464 529.79L315.929 433.776Z" fill="url(#paint2_linear_103_46)"/>
<rect x="216.115" y="343.758" width="39.8004" height="133.132" rx="19.9002" transform="rotate(-43 216.115 343.758)" fill="#F86C6C"/>
<rect x="301.03" y="427.524" width="29.8503" height="37.5777" rx="14.9252" transform="rotate(-43 301.03 427.524)" fill="#F86C6C"/>
<rect x="308.879" y="448.098" width="46.4338" height="24.6939" rx="12.3469" transform="rotate(-43 308.879 448.098)" fill="#F86C6C"/>
<path d="M727.847 637.519C731.709 635.059 736.834 636.195 739.295 640.057V640.057C741.756 643.919 740.619 649.045 736.757 651.506L626.035 722.044L617.124 708.057L727.847 637.519Z" fill="url(#paint3_linear_103_46)"/>
<rect x="834.547" y="555.781" width="39.8004" height="133.132" rx="19.9002" transform="rotate(57.5 834.547 555.781)" fill="#6CDEF8"/>
<rect x="736.709" y="624.008" width="29.8503" height="37.5777" rx="14.9252" transform="rotate(57.5 736.709 624.008)" fill="#6CDEF8"/>
<rect x="715.049" y="627.977" width="46.4338" height="24.6939" rx="12.3469" transform="rotate(57.5 715.049 627.977)" fill="#6CDEF8"/>
<defs>
<linearGradient id="paint0_linear_103_46" x1="540" y1="137" x2="540" y2="897" gradientUnits="userSpaceOnUse">
<stop stop-color="#8C8C8C"/>
<stop offset="0.0001" stop-color="#00C2FF"/>
<stop offset="1" stop-color="#305388"/>
</linearGradient>
<linearGradient id="paint1_linear_103_46" x1="539.5" y1="851" x2="539.5" y2="987" gradientUnits="userSpaceOnUse">
<stop stop-color="#5C5C5C"/>
<stop offset="1" stop-color="#363636"/>
</linearGradient>
<linearGradient id="paint2_linear_103_46" x1="316.339" y1="422.057" x2="411.528" y2="524.135" gradientUnits="userSpaceOnUse">
<stop stop-color="#AEAEAE"/>
<stop offset="1" stop-color="#828282"/>
</linearGradient>
<linearGradient id="paint3_linear_103_46" x1="739.295" y1="640.057" x2="621.579" y2="715.05" gradientUnits="userSpaceOnUse">
<stop stop-color="#AEAEAE"/>
<stop offset="1" stop-color="#828282"/>
</linearGradient>
</defs>
</svg>
