<svg width="1080" height="1080" viewBox="0 0 1080 1080" fill="none" xmlns="http://www.w3.org/2000/svg">
<path d="M182.136 562.351C143.431 340.285 314.349 137 539.764 137V137C765.337 137 936.295 340.556 897.324 562.737L836.5 909.5L237.5 880L182.136 562.351Z" fill="url(#paint0_linear_105_144)"/>
<path d="M140 905C140 875.177 164.177 851 194 851H879C912.137 851 939 877.863 939 911V934C939 963.271 915.271 987 886 987H208C170.445 987 140 956.555 140 919V905Z" fill="url(#paint1_linear_105_144)"/>
<rect x="151" y="510" width="349" height="245.927" rx="20" fill="#E4E4E4"/>
<path d="M151 530C151 518.954 159.954 510 171 510H172.699V755.927H171C159.954 755.927 151 746.973 151 735.927V530Z" fill="#171717"/>
<path d="M151 528.083C151 518.096 159.096 510 169.083 510H481.917C491.904 510 500 518.096 500 528.083V528.083H151V528.083Z" fill="#222222"/>
<rect x="579" y="373" width="349" height="245.927" rx="20" fill="#E4E4E4"/>
<path d="M579 393C579 381.954 587.954 373 599 373H600.699V618.927H599C587.954 618.927 579 609.973 579 598.927V393Z" fill="#171717"/>
<path d="M579 391.083C579 381.096 587.096 373 597.083 373H909.917C919.904 373 928 381.096 928 391.083V391.083H579V391.083Z" fill="#222222"/>
<path d="M281.816 717.976C276.964 717.976 273.031 714.043 273.031 709.191V709.191C273.031 704.34 276.964 700.407 281.816 700.407H311.73H341.644C346.496 700.407 350.429 704.34 350.429 709.191V709.191C350.429 714.043 346.496 717.976 341.644 717.976H281.816Z" fill="#1F1F1F"/>
<path d="M281.816 672.392C276.964 672.392 273.031 668.459 273.031 663.608V663.608C273.031 658.756 276.964 654.823 281.816 654.823H325.737H369.659C374.511 654.823 378.444 658.756 378.444 663.608V663.608C378.444 668.459 374.511 672.392 369.659 672.392H281.816Z" fill="#3F3F3F"/>
<path d="M281.578 627.283C276.858 627.283 273.031 623.456 273.031 618.736V618.736C273.031 614.016 276.858 610.189 281.578 610.189H325.737H369.897C374.617 610.189 378.444 614.016 378.444 618.736V618.736C378.444 623.456 374.617 627.283 369.897 627.283H281.578Z" fill="#6C6C6C"/>
<path d="M281.578 581.699C276.858 581.699 273.031 577.873 273.031 573.152V573.152C273.031 568.432 276.858 564.605 281.578 564.605H325.737H369.897C374.617 564.605 378.444 568.432 378.444 573.152V573.152C378.444 577.873 374.617 581.699 369.897 581.699H281.578Z" fill="#A7A7A7"/>
<path d="M620.13 413.327H620.923L624.927 400.717H624.147L620.13 413.327ZM625.221 413.327H626.014L630.018 400.717H629.238L625.221 413.327ZM633.661 407.802H636.963V406.97H633.661V407.802ZM638.117 407.802H641.419V406.97H638.117V407.802ZM642.573 407.802H645.875V406.97H642.573V407.802ZM647.029 407.802H650.331V406.97H647.029V407.802ZM651.485 407.802H654.787V406.97H651.485V407.802ZM655.941 407.802H659.243V406.97H655.941V407.802ZM660.398 407.802H663.7V406.97H660.398V407.802ZM664.854 407.802H668.156V406.97H664.854V407.802ZM669.31 407.802H672.612V406.97H669.31V407.802ZM673.766 407.802H677.068V406.97H673.766V407.802ZM678.222 407.802H681.524V406.97H678.222V407.802ZM682.678 407.802H685.98V406.97H682.678V407.802ZM687.134 407.802H690.436V406.97H687.134V407.802ZM691.59 407.802H694.892V406.97H691.59V407.802ZM696.046 407.802H699.348V406.97H696.046V407.802ZM700.502 407.802H703.804V406.97H700.502V407.802ZM704.958 407.802H708.26V406.97H704.958V407.802ZM709.414 407.802H712.716V406.97H709.414V407.802ZM713.87 407.802H717.172V406.97H713.87V407.802ZM718.326 407.802H721.628V406.97H718.326V407.802ZM722.782 407.802H726.084V406.97H722.782V407.802ZM727.238 407.802H730.54V406.97H727.238V407.802ZM731.694 407.802H734.996V406.97H731.694V407.802ZM736.15 407.802H739.452V406.97H736.15V407.802ZM740.606 407.802H743.908V406.97H740.606V407.802ZM745.063 407.802H748.365V406.97H745.063V407.802ZM749.519 407.802H752.821V406.97H749.519V407.802ZM753.975 407.802H757.277V406.97H753.975V407.802ZM758.431 407.802H761.733V406.97H758.431V407.802ZM762.887 407.802H766.189V406.97H762.887V407.802ZM767.343 407.802H770.645V406.97H767.343V407.802ZM620.13 432.327H620.923L624.927 419.717H624.147L620.13 432.327ZM625.221 432.327H626.014L630.018 419.717H629.238L625.221 432.327ZM636.391 430H637.47V421.407H640.382V420.484H633.479V421.407H636.391V430ZM642.017 430H643.07V424.865C643.811 424.111 644.331 423.734 645.072 423.734C646.06 423.734 646.476 424.332 646.476 425.684V430H647.529V425.541C647.529 423.747 646.853 422.811 645.384 422.811C644.422 422.811 643.707 423.344 643.044 424.007L643.07 422.525V419.665H642.017V430ZM649.837 430H650.89V422.98H649.837V430ZM650.37 421.472C650.799 421.472 651.111 421.199 651.111 420.731C651.111 420.302 650.799 420.016 650.37 420.016C649.941 420.016 649.642 420.302 649.642 420.731C649.642 421.199 649.941 421.472 650.37 421.472ZM655.135 430.182C656.76 430.182 657.631 429.246 657.631 428.115C657.631 426.776 656.5 426.373 655.46 425.983C654.667 425.684 653.926 425.411 653.926 424.722C653.926 424.15 654.368 423.643 655.304 423.643C655.941 423.643 656.435 423.916 656.916 424.267L657.436 423.591C656.903 423.149 656.136 422.811 655.291 422.811C653.783 422.811 652.912 423.682 652.912 424.761C652.912 425.97 653.991 426.425 654.979 426.789C655.772 427.088 656.617 427.426 656.617 428.18C656.617 428.817 656.136 429.337 655.161 429.337C654.29 429.337 653.666 428.986 653.055 428.492L652.522 429.207C653.185 429.753 654.121 430.182 655.135 430.182ZM662.241 430H663.294V422.98H662.241V430ZM662.774 421.472C663.203 421.472 663.515 421.199 663.515 420.731C663.515 420.302 663.203 420.016 662.774 420.016C662.345 420.016 662.046 420.302 662.046 420.731C662.046 421.199 662.345 421.472 662.774 421.472ZM667.539 430.182C669.164 430.182 670.035 429.246 670.035 428.115C670.035 426.776 668.904 426.373 667.864 425.983C667.071 425.684 666.33 425.411 666.33 424.722C666.33 424.15 666.772 423.643 667.708 423.643C668.345 423.643 668.839 423.916 669.32 424.267L669.84 423.591C669.307 423.149 668.54 422.811 667.695 422.811C666.187 422.811 665.316 423.682 665.316 424.761C665.316 425.97 666.395 426.425 667.383 426.789C668.176 427.088 669.021 427.426 669.021 428.18C669.021 428.817 668.54 429.337 667.565 429.337C666.694 429.337 666.07 428.986 665.459 428.492L664.926 429.207C665.589 429.753 666.525 430.182 667.539 430.182ZM676.243 430.182C677.127 430.182 677.92 429.714 678.596 429.155H678.648L678.739 430H679.61V425.645C679.61 423.968 678.934 422.811 677.218 422.811C676.087 422.811 675.112 423.318 674.501 423.721L674.917 424.462C675.463 424.098 676.217 423.695 677.062 423.695C678.271 423.695 678.557 424.618 678.544 425.567C675.528 425.905 674.189 426.659 674.189 428.193C674.189 429.48 675.086 430.182 676.243 430.182ZM676.516 429.311C675.801 429.311 675.229 428.986 675.229 428.128C675.229 427.179 676.061 426.568 678.544 426.295V428.336C677.829 428.973 677.231 429.311 676.516 429.311ZM681.893 430H682.946V424.865C683.687 424.111 684.207 423.734 684.948 423.734C685.936 423.734 686.352 424.332 686.352 425.684V430H687.405V425.541C687.405 423.747 686.729 422.811 685.26 422.811C684.298 422.811 683.57 423.344 682.894 424.02H682.868L682.764 422.98H681.893V430ZM695.454 430.182C696.416 430.182 697.144 429.857 697.742 429.467L697.352 428.752C696.832 429.103 696.273 429.324 695.571 429.324C694.18 429.324 693.231 428.284 693.166 426.737H697.976C698.002 426.555 698.028 426.321 698.028 426.1C698.028 424.072 697.014 422.811 695.246 422.811C693.647 422.811 692.113 424.215 692.113 426.503C692.113 428.817 693.595 430.182 695.454 430.182ZM693.153 425.957C693.309 424.501 694.232 423.669 695.259 423.669C696.403 423.669 697.079 424.462 697.079 425.957H693.153ZM698.652 430H699.77L700.771 428.297C701.005 427.868 701.239 427.439 701.499 427.036H701.564C701.837 427.439 702.097 427.868 702.331 428.297L703.423 430H704.58L702.253 426.451L704.398 422.98H703.293L702.383 424.579C702.149 424.969 701.941 425.359 701.733 425.762H701.668C701.434 425.359 701.187 424.969 700.966 424.579L699.978 422.98H698.834L700.979 426.347L698.652 430ZM707.423 430.182C708.307 430.182 709.1 429.714 709.776 429.155H709.828L709.919 430H710.79V425.645C710.79 423.968 710.114 422.811 708.398 422.811C707.267 422.811 706.292 423.318 705.681 423.721L706.097 424.462C706.643 424.098 707.397 423.695 708.242 423.695C709.451 423.695 709.737 424.618 709.724 425.567C706.708 425.905 705.369 426.659 705.369 428.193C705.369 429.48 706.266 430.182 707.423 430.182ZM707.696 429.311C706.981 429.311 706.409 428.986 706.409 428.128C706.409 427.179 707.241 426.568 709.724 426.295V428.336C709.009 428.973 708.411 429.311 707.696 429.311ZM713.073 430H714.126V424.865C714.802 424.111 715.413 423.734 715.972 423.734C716.908 423.734 717.35 424.332 717.35 425.684V430H718.39V424.865C719.079 424.111 719.677 423.734 720.236 423.734C721.172 423.734 721.614 424.332 721.614 425.684V430H722.667V425.541C722.667 423.747 721.978 422.811 720.548 422.811C719.703 422.811 718.962 423.357 718.208 424.176C717.935 423.331 717.363 422.811 716.271 422.811C715.439 422.811 714.698 423.344 714.074 424.02H714.048L713.944 422.98H713.073V430ZM725.032 433.016H726.085V430.598L726.059 429.35C726.722 429.883 727.398 430.182 728.035 430.182C729.66 430.182 731.103 428.791 731.103 426.386C731.103 424.215 730.128 422.811 728.308 422.811C727.476 422.811 726.683 423.279 726.033 423.812H726.007L725.903 422.98H725.032V433.016ZM727.892 429.285C727.411 429.285 726.761 429.077 726.085 428.518V424.709C726.813 424.059 727.437 423.708 728.061 423.708C729.452 423.708 729.998 424.8 729.998 426.399C729.998 428.18 729.101 429.285 727.892 429.285ZM734.187 430.182C734.486 430.182 734.655 430.13 734.811 430.078L734.668 429.259C734.525 429.285 734.473 429.285 734.408 429.285C734.226 429.285 734.083 429.142 734.083 428.791V419.665H733.03V428.713C733.03 429.662 733.368 430.182 734.187 430.182ZM739.455 430.182C740.417 430.182 741.145 429.857 741.743 429.467L741.353 428.752C740.833 429.103 740.274 429.324 739.572 429.324C738.181 429.324 737.232 428.284 737.167 426.737H741.977C742.003 426.555 742.029 426.321 742.029 426.1C742.029 424.072 741.015 422.811 739.247 422.811C737.648 422.811 736.114 424.215 736.114 426.503C736.114 428.817 737.596 430.182 739.455 430.182ZM737.154 425.957C737.31 424.501 738.233 423.669 739.26 423.669C740.404 423.669 741.08 424.462 741.08 425.957H737.154ZM744.315 430.182C744.757 430.182 745.121 429.831 745.121 429.337C745.121 428.817 744.757 428.479 744.315 428.479C743.886 428.479 743.522 428.817 743.522 429.337C743.522 429.831 743.886 430.182 744.315 430.182ZM620.13 451.327H620.923L624.927 438.717H624.147L620.13 451.327ZM625.221 451.327H626.014L630.018 438.717H629.238L625.221 451.327ZM633.661 445.802H636.963V444.97H633.661V445.802ZM638.117 445.802H641.419V444.97H638.117V445.802ZM642.573 445.802H645.875V444.97H642.573V445.802ZM647.029 445.802H650.331V444.97H647.029V445.802ZM651.485 445.802H654.787V444.97H651.485V445.802ZM655.941 445.802H659.243V444.97H655.941V445.802ZM660.398 445.802H663.7V444.97H660.398V445.802ZM664.854 445.802H668.156V444.97H664.854V445.802ZM669.31 445.802H672.612V444.97H669.31V445.802ZM673.766 445.802H677.068V444.97H673.766V445.802ZM678.222 445.802H681.524V444.97H678.222V445.802ZM682.678 445.802H685.98V444.97H682.678V445.802ZM687.134 445.802H690.436V444.97H687.134V445.802ZM691.59 445.802H694.892V444.97H691.59V445.802ZM696.046 445.802H699.348V444.97H696.046V445.802ZM700.502 445.802H703.804V444.97H700.502V445.802ZM704.958 445.802H708.26V444.97H704.958V445.802ZM709.414 445.802H712.716V444.97H709.414V445.802ZM713.87 445.802H717.172V444.97H713.87V445.802ZM718.326 445.802H721.628V444.97H718.326V445.802ZM722.782 445.802H726.084V444.97H722.782V445.802ZM727.238 445.802H730.54V444.97H727.238V445.802ZM731.694 445.802H734.996V444.97H731.694V445.802ZM736.15 445.802H739.452V444.97H736.15V445.802ZM740.606 445.802H743.908V444.97H740.606V445.802ZM745.063 445.802H748.365V444.97H745.063V445.802ZM749.519 445.802H752.821V444.97H749.519V445.802ZM753.975 445.802H757.277V444.97H753.975V445.802ZM758.431 445.802H761.733V444.97H758.431V445.802ZM762.887 445.802H766.189V444.97H762.887V445.802ZM767.343 445.802H770.645V444.97H767.343V445.802Z" fill="#409A38"/>
<path d="M621.222 487H622.275V479.98H621.222V487ZM621.755 478.472C622.184 478.472 622.496 478.199 622.496 477.731C622.496 477.302 622.184 477.016 621.755 477.016C621.326 477.016 621.027 477.302 621.027 477.731C621.027 478.199 621.326 478.472 621.755 478.472ZM624.713 487H625.766V481.865C626.442 481.111 627.053 480.734 627.612 480.734C628.548 480.734 628.99 481.332 628.99 482.684V487H630.03V481.865C630.719 481.111 631.317 480.734 631.876 480.734C632.812 480.734 633.254 481.332 633.254 482.684V487H634.307V482.541C634.307 480.747 633.618 479.811 632.188 479.811C631.343 479.811 630.602 480.357 629.848 481.176C629.575 480.331 629.003 479.811 627.911 479.811C627.079 479.811 626.338 480.344 625.714 481.02H625.688L625.584 479.98H624.713V487ZM636.672 490.016H637.725V487.598L637.699 486.35C638.362 486.883 639.038 487.182 639.675 487.182C641.3 487.182 642.743 485.791 642.743 483.386C642.743 481.215 641.768 479.811 639.948 479.811C639.116 479.811 638.323 480.279 637.673 480.812H637.647L637.543 479.98H636.672V490.016ZM639.532 486.285C639.051 486.285 638.401 486.077 637.725 485.518V481.709C638.453 481.059 639.077 480.708 639.701 480.708C641.092 480.708 641.638 481.8 641.638 483.399C641.638 485.18 640.741 486.285 639.532 486.285ZM647.361 487.182C649.077 487.182 650.585 485.83 650.585 483.503C650.585 481.163 649.077 479.811 647.361 479.811C645.645 479.811 644.124 481.163 644.124 483.503C644.124 485.83 645.645 487.182 647.361 487.182ZM647.361 486.285C646.087 486.285 645.229 485.167 645.229 483.503C645.229 481.826 646.087 480.695 647.361 480.695C648.622 480.695 649.493 481.826 649.493 483.503C649.493 485.167 648.622 486.285 647.361 486.285ZM652.491 487H653.544V482.437C654.038 481.202 654.753 480.76 655.351 480.76C655.637 480.76 655.793 480.799 656.027 480.877L656.222 479.954C656.001 479.85 655.793 479.811 655.481 479.811C654.688 479.811 653.986 480.383 653.492 481.267H653.466L653.362 479.98H652.491V487ZM659.548 487.182C659.951 487.182 660.406 487.052 660.809 486.909L660.588 486.116C660.367 486.22 660.029 486.311 659.782 486.311C658.924 486.311 658.664 485.791 658.664 484.933V480.851H660.601V479.98H658.664V477.991H657.78L657.663 479.98L656.558 480.058V480.851H657.611V484.894C657.611 486.259 658.092 487.182 659.548 487.182ZM846.39 487H847.443V478.784C847.443 477.848 847.768 477.354 848.457 477.354C848.717 477.354 849.003 477.419 849.263 477.549L849.497 476.717C849.172 476.587 848.769 476.496 848.366 476.496C847.027 476.496 846.39 477.354 846.39 478.758V487ZM845.428 480.851H848.964V479.98H846.429L845.428 480.058V480.851ZM850.347 487H851.4V482.437C851.894 481.202 852.609 480.76 853.207 480.76C853.493 480.76 853.649 480.799 853.883 480.877L854.078 479.954C853.857 479.85 853.649 479.811 853.337 479.811C852.544 479.811 851.842 480.383 851.348 481.267H851.322L851.218 479.98H850.347V487ZM857.786 487.182C859.502 487.182 861.01 485.83 861.01 483.503C861.01 481.163 859.502 479.811 857.786 479.811C856.07 479.811 854.549 481.163 854.549 483.503C854.549 485.83 856.07 487.182 857.786 487.182ZM857.786 486.285C856.512 486.285 855.654 485.167 855.654 483.503C855.654 481.826 856.512 480.695 857.786 480.695C859.047 480.695 859.918 481.826 859.918 483.503C859.918 485.167 859.047 486.285 857.786 486.285ZM862.915 487H863.968V481.865C864.644 481.111 865.255 480.734 865.814 480.734C866.75 480.734 867.192 481.332 867.192 482.684V487H868.232V481.865C868.921 481.111 869.519 480.734 870.078 480.734C871.014 480.734 871.456 481.332 871.456 482.684V487H872.509V482.541C872.509 480.747 871.82 479.811 870.39 479.811C869.545 479.811 868.804 480.357 868.05 481.176C867.777 480.331 867.205 479.811 866.113 479.811C865.281 479.811 864.54 480.344 863.916 481.02H863.89L863.786 479.98H862.915V487Z" fill="#F04C7D"/>
<path d="M667.176 489.21H667.787V488.599H667.397C666.591 488.599 666.383 488.183 666.383 487.234C666.383 486.337 666.461 485.57 666.461 484.569C666.461 483.672 666.24 483.191 665.616 483.009V482.957C666.24 482.775 666.461 482.307 666.461 481.397C666.461 480.383 666.383 479.616 666.383 478.732C666.383 477.77 666.591 477.367 667.397 477.367H667.787V476.743H667.176C666.045 476.743 665.512 477.172 665.512 478.667C665.512 479.72 665.629 480.513 665.629 481.514C665.629 482.06 665.382 482.632 664.394 482.632V483.308C665.382 483.321 665.629 483.88 665.629 484.465C665.629 485.44 665.512 486.246 665.512 487.299C665.512 488.794 666.045 489.21 667.176 489.21ZM690.786 489.418C691.878 488.937 692.58 487.988 692.58 486.792C692.58 485.973 692.229 485.479 691.644 485.479C691.202 485.479 690.825 485.778 690.825 486.259C690.825 486.753 691.189 487.039 691.618 487.039C691.839 487.039 692.047 486.987 692.19 486.792L691.631 485.96L691.774 486.987C691.774 487.793 691.293 488.417 690.526 488.781L690.786 489.418ZM740.221 489.418C741.313 488.937 742.015 487.988 742.015 486.792C742.015 485.973 741.664 485.479 741.079 485.479C740.637 485.479 740.26 485.778 740.26 486.259C740.26 486.753 740.624 487.039 741.053 487.039C741.274 487.039 741.482 486.987 741.625 486.792L741.066 485.96L741.209 486.987C741.209 487.793 740.728 488.417 739.961 488.781L740.221 489.418ZM838.204 489.21H838.815C839.946 489.21 840.492 488.794 840.492 487.299C840.492 486.246 840.362 485.44 840.362 484.465C840.362 483.88 840.609 483.321 841.597 483.308V482.632C840.609 482.632 840.362 482.06 840.362 481.514C840.362 480.513 840.492 479.72 840.492 478.667C840.492 477.172 839.946 476.743 838.815 476.743H838.204V477.367H838.594C839.4 477.367 839.621 477.77 839.621 478.732C839.621 479.616 839.543 480.383 839.543 481.397C839.543 482.307 839.751 482.775 840.362 482.957V483.009C839.751 483.191 839.543 483.672 839.543 484.569C839.543 485.57 839.621 486.337 839.621 487.234C839.621 488.183 839.4 488.599 838.594 488.599H838.204V489.21ZM680.953 500.878C681.395 500.878 681.759 500.54 681.759 500.033C681.759 499.526 681.395 499.175 680.953 499.175C680.524 499.175 680.16 499.526 680.16 500.033C680.16 500.54 680.524 500.878 680.953 500.878ZM680.16 508.418C681.252 507.937 681.954 506.988 681.954 505.792C681.954 504.973 681.603 504.479 681.018 504.479C680.576 504.479 680.199 504.778 680.199 505.259C680.199 505.753 680.563 506.039 680.992 506.039C681.213 506.039 681.421 505.987 681.564 505.792L681.005 504.96L681.148 505.987C681.148 506.793 680.667 507.417 679.9 507.781L680.16 508.418ZM747.752 538.085H753.914V537.292H747.752V538.085ZM747.752 541.153H753.914V540.36H747.752V541.153ZM758.522 544H759.575V538.865C760.316 538.111 760.836 537.734 761.577 537.734C762.565 537.734 762.981 538.332 762.981 539.684V544H764.034V539.541C764.034 537.747 763.358 536.811 761.889 536.811C760.927 536.811 760.199 537.344 759.523 538.02H759.497L759.393 536.98H758.522V544ZM769.188 544.182C770.15 544.182 770.878 543.857 771.476 543.467L771.086 542.752C770.566 543.103 770.007 543.324 769.305 543.324C767.914 543.324 766.965 542.284 766.9 540.737H771.71C771.736 540.555 771.762 540.321 771.762 540.1C771.762 538.072 770.748 536.811 768.98 536.811C767.381 536.811 765.847 538.215 765.847 540.503C765.847 542.817 767.329 544.182 769.188 544.182ZM766.887 539.957C767.043 538.501 767.966 537.669 768.993 537.669C770.137 537.669 770.813 538.462 770.813 539.957H766.887ZM774.696 544H775.931L776.971 540.113C777.166 539.437 777.309 538.774 777.465 538.072H777.53C777.699 538.774 777.842 539.424 778.024 540.087L779.09 544H780.39L782.301 536.98H781.287L780.221 541.153C780.052 541.829 779.909 542.453 779.766 543.103H779.714C779.532 542.453 779.376 541.829 779.207 541.153L778.063 536.98H776.997L775.866 541.153C775.697 541.829 775.541 542.453 775.385 543.103H775.32C775.177 542.453 775.047 541.829 774.904 541.153L773.799 536.98H772.707L774.696 544ZM877.928 546.548L878.565 546.236C877.447 544.403 876.901 542.206 876.901 539.983C876.901 537.76 877.447 535.563 878.565 533.717L877.928 533.405C876.732 535.342 876.017 537.435 876.017 539.983C876.017 542.531 876.732 544.611 877.928 546.548ZM882.387 546.21H882.998V545.599H882.608C881.802 545.599 881.594 545.183 881.594 544.234C881.594 543.337 881.672 542.57 881.672 541.569C881.672 540.672 881.451 540.191 880.827 540.009V539.957C881.451 539.775 881.672 539.307 881.672 538.397C881.672 537.383 881.594 536.616 881.594 535.732C881.594 534.77 881.802 534.367 882.608 534.367H882.998V533.743H882.387C881.256 533.743 880.723 534.172 880.723 535.667C880.723 536.72 880.84 537.513 880.84 538.514C880.84 539.06 880.593 539.632 879.605 539.632V540.308C880.593 540.321 880.84 540.88 880.84 541.465C880.84 542.44 880.723 543.246 880.723 544.299C880.723 545.794 881.256 546.21 882.387 546.21ZM691.033 557.878C691.475 557.878 691.839 557.54 691.839 557.033C691.839 556.526 691.475 556.175 691.033 556.175C690.604 556.175 690.24 556.526 690.24 557.033C690.24 557.54 690.604 557.878 691.033 557.878ZM691.033 563.182C691.475 563.182 691.839 562.831 691.839 562.337C691.839 561.817 691.475 561.479 691.033 561.479C690.604 561.479 690.24 561.817 690.24 562.337C690.24 562.831 690.604 563.182 691.033 563.182ZM697.055 565.21H699.564V564.599H697.848V553.367H699.564V552.743H697.055V565.21ZM744.772 563.182C745.214 563.182 745.578 562.831 745.578 562.337C745.578 561.817 745.214 561.479 744.772 561.479C744.343 561.479 743.979 561.817 743.979 562.337C743.979 562.831 744.343 563.182 744.772 563.182ZM751.383 563.182C752.618 563.182 753.528 562.675 754.282 561.817L753.684 561.128C753.047 561.83 752.345 562.233 751.435 562.233C749.563 562.233 748.38 560.673 748.38 558.229C748.38 555.785 749.602 554.264 751.474 554.264C752.293 554.264 752.943 554.641 753.45 555.174L754.035 554.485C753.502 553.874 752.605 553.315 751.461 553.315C749.043 553.315 747.275 555.187 747.275 558.255C747.275 561.323 749.017 563.182 751.383 563.182ZM755.983 563H757.036V557.865C757.777 557.111 758.297 556.734 759.038 556.734C760.026 556.734 760.442 557.332 760.442 558.684V563H761.495V558.541C761.495 556.747 760.819 555.811 759.35 555.811C758.388 555.811 757.673 556.344 757.01 557.007L757.036 555.525V552.665H755.983V563ZM765.402 563.182C766.286 563.182 767.079 562.714 767.755 562.155H767.807L767.898 563H768.769V558.645C768.769 556.968 768.093 555.811 766.377 555.811C765.246 555.811 764.271 556.318 763.66 556.721L764.076 557.462C764.622 557.098 765.376 556.695 766.221 556.695C767.43 556.695 767.716 557.618 767.703 558.567C764.687 558.905 763.348 559.659 763.348 561.193C763.348 562.48 764.245 563.182 765.402 563.182ZM765.675 562.311C764.96 562.311 764.388 561.986 764.388 561.128C764.388 560.179 765.22 559.568 767.703 559.295V561.336C766.988 561.973 766.39 562.311 765.675 562.311ZM772.968 563.182C773.371 563.182 773.826 563.052 774.229 562.909L774.008 562.116C773.787 562.22 773.449 562.311 773.202 562.311C772.344 562.311 772.084 561.791 772.084 560.933V556.851H774.021V555.98H772.084V553.991H771.2L771.083 555.98L769.978 556.058V556.851H771.031V560.894C771.031 562.259 771.512 563.182 772.968 563.182ZM776.282 563.182C776.724 563.182 777.088 562.831 777.088 562.337C777.088 561.817 776.724 561.479 776.282 561.479C775.853 561.479 775.489 561.817 775.489 562.337C775.489 562.831 775.853 563.182 776.282 563.182ZM783.023 563.182C784.297 563.182 785.324 562.714 785.948 562.09V558.138H782.867V559.035H784.934V561.635C784.557 562.012 783.855 562.233 783.14 562.233C781.06 562.233 779.89 560.673 779.89 558.229C779.89 555.785 781.164 554.264 783.14 554.264C784.115 554.264 784.739 554.68 785.22 555.174L785.818 554.485C785.285 553.913 784.427 553.315 783.114 553.315C780.592 553.315 778.785 555.187 778.785 558.255C778.785 561.323 780.54 563.182 783.023 563.182ZM788.244 563H789.31V559.152H790.935C793.028 559.152 794.419 558.229 794.419 556.253C794.419 554.199 793.015 553.484 790.883 553.484H788.244V563ZM789.31 558.268V554.368H790.727C792.469 554.368 793.34 554.81 793.34 556.253C793.34 557.657 792.508 558.268 790.779 558.268H789.31ZM797.964 563H799.043V554.407H801.955V553.484H795.052V554.407H797.964V563ZM802.94 563H808.842V562.09H806.047C805.566 562.09 804.994 562.129 804.487 562.181C806.775 559.776 808.387 558.034 808.387 556.266C808.387 554.654 807.347 553.588 805.657 553.588C804.461 553.588 803.642 554.147 802.888 554.979L803.512 555.577C804.045 554.94 804.747 554.446 805.527 554.446C806.762 554.446 807.334 555.239 807.334 556.305C807.334 557.852 805.787 559.529 802.94 562.376V563ZM809.945 566.185C811.271 566.185 811.791 565.34 811.791 563.923V555.98H810.725V563.91C810.725 564.768 810.569 565.34 809.854 565.34C809.594 565.34 809.347 565.262 809.165 565.21L808.957 566.003C809.191 566.107 809.542 566.185 809.945 566.185ZM811.245 554.472C811.674 554.472 811.986 554.199 811.986 553.731C811.986 553.302 811.674 553.016 811.245 553.016C810.816 553.016 810.517 553.302 810.517 553.731C810.517 554.199 810.816 554.472 811.245 554.472ZM815.828 563.182C816.712 563.182 817.505 562.714 818.181 562.155H818.233L818.324 563H819.195V558.645C819.195 556.968 818.519 555.811 816.803 555.811C815.672 555.811 814.697 556.318 814.086 556.721L814.502 557.462C815.048 557.098 815.802 556.695 816.647 556.695C817.856 556.695 818.142 557.618 818.129 558.567C815.113 558.905 813.774 559.659 813.774 561.193C813.774 562.48 814.671 563.182 815.828 563.182ZM816.101 562.311C815.386 562.311 814.814 561.986 814.814 561.128C814.814 560.179 815.646 559.568 818.129 559.295V561.336C817.414 561.973 816.816 562.311 816.101 562.311ZM820.659 565.21H823.168V552.743H820.659V553.367H822.375V564.599H820.659V565.21ZM620.403 584.21H621.014C622.145 584.21 622.691 583.794 622.691 582.299C622.691 581.246 622.561 580.44 622.561 579.465C622.561 578.88 622.808 578.321 623.796 578.308V577.632C622.808 577.632 622.561 577.06 622.561 576.514C622.561 575.513 622.691 574.72 622.691 573.667C622.691 572.172 622.145 571.743 621.014 571.743H620.403V572.367H620.793C621.599 572.367 621.82 572.77 621.82 573.732C621.82 574.616 621.742 575.383 621.742 576.397C621.742 577.307 621.95 577.775 622.561 577.957V578.009C621.95 578.191 621.742 578.672 621.742 579.569C621.742 580.57 621.82 581.337 621.82 582.234C621.82 583.183 621.599 583.599 620.793 583.599H620.403V584.21ZM625.487 584.548C626.683 582.611 627.398 580.531 627.398 577.983C627.398 575.435 626.683 573.342 625.487 571.405L624.824 571.717C625.955 573.563 626.501 575.76 626.501 577.983C626.501 580.206 625.955 582.403 624.824 584.236L625.487 584.548ZM630.349 576.878C630.791 576.878 631.155 576.54 631.155 576.033C631.155 575.526 630.791 575.175 630.349 575.175C629.92 575.175 629.556 575.526 629.556 576.033C629.556 576.54 629.92 576.878 630.349 576.878ZM629.556 584.418C630.648 583.937 631.35 582.988 631.35 581.792C631.35 580.973 630.999 580.479 630.414 580.479C629.972 580.479 629.595 580.778 629.595 581.259C629.595 581.753 629.959 582.039 630.388 582.039C630.609 582.039 630.817 581.987 630.96 581.792L630.401 580.96L630.544 581.987C630.544 582.793 630.063 583.417 629.296 583.781L629.556 584.418Z" fill="black"/>
<path d="M673.92 487.182C674.804 487.182 675.597 486.714 676.273 486.155H676.325L676.416 487H677.287V482.645C677.287 480.968 676.611 479.811 674.895 479.811C673.764 479.811 672.789 480.318 672.178 480.721L672.594 481.462C673.14 481.098 673.894 480.695 674.739 480.695C675.948 480.695 676.234 481.618 676.221 482.567C673.205 482.905 671.866 483.659 671.866 485.193C671.866 486.48 672.763 487.182 673.92 487.182ZM674.193 486.311C673.478 486.311 672.906 485.986 672.906 485.128C672.906 484.179 673.738 483.568 676.221 483.295V485.336C675.506 485.973 674.908 486.311 674.193 486.311ZM679.57 490.016H680.623V487.598L680.597 486.35C681.26 486.883 681.936 487.182 682.573 487.182C684.198 487.182 685.641 485.791 685.641 483.386C685.641 481.215 684.666 479.811 682.846 479.811C682.014 479.811 681.221 480.279 680.571 480.812H680.545L680.441 479.98H679.57V490.016ZM682.43 486.285C681.949 486.285 681.299 486.077 680.623 485.518V481.709C681.351 481.059 681.975 480.708 682.599 480.708C683.99 480.708 684.536 481.8 684.536 483.399C684.536 485.18 683.639 486.285 682.43 486.285ZM687.568 487H688.621V479.98H687.568V487ZM688.101 478.472C688.53 478.472 688.842 478.199 688.842 477.731C688.842 477.302 688.53 477.016 688.101 477.016C687.672 477.016 687.373 477.302 687.373 477.731C687.373 478.199 687.672 478.472 688.101 478.472ZM656.566 547.016H657.619V544.598L657.593 543.35C658.256 543.883 658.932 544.182 659.569 544.182C661.194 544.182 662.637 542.791 662.637 540.386C662.637 538.215 661.662 536.811 659.842 536.811C659.01 536.811 658.217 537.279 657.567 537.812H657.541L657.437 536.98H656.566V547.016ZM659.426 543.285C658.945 543.285 658.295 543.077 657.619 542.518V538.709C658.347 538.059 658.971 537.708 659.595 537.708C660.986 537.708 661.532 538.8 661.532 540.399C661.532 542.18 660.635 543.285 659.426 543.285ZM664.514 547.068C665.879 547.068 666.607 546.002 667.075 544.663L669.74 536.98H668.7L667.387 540.997C667.205 541.621 666.984 542.336 666.789 542.986H666.724C666.49 542.336 666.243 541.621 666.022 540.997L664.527 536.98H663.435L666.269 544.039L666.1 544.598C665.788 545.508 665.281 546.184 664.462 546.184C664.267 546.184 664.059 546.132 663.916 546.08L663.708 546.925C663.929 547.016 664.202 547.068 664.514 547.068ZM673.272 544.182C673.675 544.182 674.13 544.052 674.533 543.909L674.312 543.116C674.091 543.22 673.753 543.311 673.506 543.311C672.648 543.311 672.388 542.791 672.388 541.933V537.851H674.325V536.98H672.388V534.991H671.504L671.387 536.98L670.282 537.058V537.851H671.335V541.894C671.335 543.259 671.816 544.182 673.272 544.182ZM675.951 544H677.004V538.865C677.745 538.111 678.265 537.734 679.006 537.734C679.994 537.734 680.41 538.332 680.41 539.684V544H681.463V539.541C681.463 537.747 680.787 536.811 679.318 536.811C678.356 536.811 677.641 537.344 676.978 538.007L677.004 536.525V533.665H675.951V544ZM686.463 544.182C688.179 544.182 689.687 542.83 689.687 540.503C689.687 538.163 688.179 536.811 686.463 536.811C684.747 536.811 683.226 538.163 683.226 540.503C683.226 542.83 684.747 544.182 686.463 544.182ZM686.463 543.285C685.189 543.285 684.331 542.167 684.331 540.503C684.331 538.826 685.189 537.695 686.463 537.695C687.724 537.695 688.595 538.826 688.595 540.503C688.595 542.167 687.724 543.285 686.463 543.285ZM691.592 544H692.645V538.865C693.386 538.111 693.906 537.734 694.647 537.734C695.635 537.734 696.051 538.332 696.051 539.684V544H697.104V539.541C697.104 537.747 696.428 536.811 694.959 536.811C693.997 536.811 693.269 537.344 692.593 538.02H692.567L692.463 536.98H691.592V544ZM699.567 544H700.633V540.152H702.258C704.351 540.152 705.742 539.229 705.742 537.253C705.742 535.199 704.338 534.484 702.206 534.484H699.567V544ZM700.633 539.268V535.368H702.05C703.792 535.368 704.663 535.81 704.663 537.253C704.663 538.657 703.831 539.268 702.102 539.268H700.633ZM707.601 544H708.654V539.437C709.148 538.202 709.863 537.76 710.461 537.76C710.747 537.76 710.903 537.799 711.137 537.877L711.332 536.954C711.111 536.85 710.903 536.811 710.591 536.811C709.798 536.811 709.096 537.383 708.602 538.267H708.576L708.472 536.98H707.601V544ZM715.04 544.182C716.756 544.182 718.264 542.83 718.264 540.503C718.264 538.163 716.756 536.811 715.04 536.811C713.324 536.811 711.803 538.163 711.803 540.503C711.803 542.83 713.324 544.182 715.04 544.182ZM715.04 543.285C713.766 543.285 712.908 542.167 712.908 540.503C712.908 538.826 713.766 537.695 715.04 537.695C716.301 537.695 717.172 538.826 717.172 540.503C717.172 542.167 716.301 543.285 715.04 543.285ZM722.886 544.182C723.744 544.182 724.537 543.831 725.161 543.285L724.693 542.57C724.238 542.973 723.653 543.285 722.99 543.285C721.638 543.285 720.728 542.167 720.728 540.503C720.728 538.826 721.69 537.695 723.016 537.695C723.588 537.695 724.056 537.968 724.472 538.345L725.018 537.643C724.537 537.201 723.887 536.811 722.964 536.811C721.183 536.811 719.623 538.163 719.623 540.503C719.623 542.83 721.04 544.182 722.886 544.182ZM729.223 544.182C730.185 544.182 730.913 543.857 731.511 543.467L731.121 542.752C730.601 543.103 730.042 543.324 729.34 543.324C727.949 543.324 727 542.284 726.935 540.737H731.745C731.771 540.555 731.797 540.321 731.797 540.1C731.797 538.072 730.783 536.811 729.015 536.811C727.416 536.811 725.882 538.215 725.882 540.503C725.882 542.817 727.364 544.182 729.223 544.182ZM726.922 539.957C727.078 538.501 728.001 537.669 729.028 537.669C730.172 537.669 730.848 538.462 730.848 539.957H726.922ZM735.37 544.182C736.995 544.182 737.866 543.246 737.866 542.115C737.866 540.776 736.735 540.373 735.695 539.983C734.902 539.684 734.161 539.411 734.161 538.722C734.161 538.15 734.603 537.643 735.539 537.643C736.176 537.643 736.67 537.916 737.151 538.267L737.671 537.591C737.138 537.149 736.371 536.811 735.526 536.811C734.018 536.811 733.147 537.682 733.147 538.761C733.147 539.97 734.226 540.425 735.214 540.789C736.007 541.088 736.852 541.426 736.852 542.18C736.852 542.817 736.371 543.337 735.396 543.337C734.525 543.337 733.901 542.986 733.29 542.492L732.757 543.207C733.42 543.753 734.356 544.182 735.37 544.182ZM741.387 544.182C743.012 544.182 743.883 543.246 743.883 542.115C743.883 540.776 742.752 540.373 741.712 539.983C740.919 539.684 740.178 539.411 740.178 538.722C740.178 538.15 740.62 537.643 741.556 537.643C742.193 537.643 742.687 537.916 743.168 538.267L743.688 537.591C743.155 537.149 742.388 536.811 741.543 536.811C740.035 536.811 739.164 537.682 739.164 538.761C739.164 539.97 740.243 540.425 741.231 540.789C742.024 541.088 742.869 541.426 742.869 542.18C742.869 542.817 742.388 543.337 741.413 543.337C740.542 543.337 739.918 542.986 739.307 542.492L738.774 543.207C739.437 543.753 740.373 544.182 741.387 544.182ZM623.939 563.182C624.797 563.182 625.59 562.831 626.214 562.285L625.746 561.57C625.291 561.973 624.706 562.285 624.043 562.285C622.691 562.285 621.781 561.167 621.781 559.503C621.781 557.826 622.743 556.695 624.069 556.695C624.641 556.695 625.109 556.968 625.525 557.345L626.071 556.643C625.59 556.201 624.94 555.811 624.017 555.811C622.236 555.811 620.676 557.163 620.676 559.503C620.676 561.83 622.093 563.182 623.939 563.182ZM627.798 563H628.851V557.865C629.592 557.111 630.112 556.734 630.853 556.734C631.841 556.734 632.257 557.332 632.257 558.684V563H633.31V558.541C633.31 556.747 632.634 555.811 631.165 555.811C630.203 555.811 629.488 556.344 628.825 557.007L628.851 555.525V552.665H627.798V563ZM637.217 563.182C638.101 563.182 638.894 562.714 639.57 562.155H639.622L639.713 563H640.584V558.645C640.584 556.968 639.908 555.811 638.192 555.811C637.061 555.811 636.086 556.318 635.475 556.721L635.891 557.462C636.437 557.098 637.191 556.695 638.036 556.695C639.245 556.695 639.531 557.618 639.518 558.567C636.502 558.905 635.163 559.659 635.163 561.193C635.163 562.48 636.06 563.182 637.217 563.182ZM637.49 562.311C636.775 562.311 636.203 561.986 636.203 561.128C636.203 560.179 637.035 559.568 639.518 559.295V561.336C638.803 561.973 638.205 562.311 637.49 562.311ZM644.784 563.182C645.187 563.182 645.642 563.052 646.045 562.909L645.824 562.116C645.603 562.22 645.265 562.311 645.018 562.311C644.16 562.311 643.9 561.791 643.9 560.933V556.851H645.837V555.98H643.9V553.991H643.016L642.899 555.98L641.794 556.058V556.851H642.847V560.894C642.847 562.259 643.328 563.182 644.784 563.182ZM647.567 563H648.542V557.514C648.542 556.695 648.464 555.577 648.399 554.758H648.451L649.205 556.916L651.077 562.025H651.831L653.69 556.916L654.444 554.758H654.496C654.431 555.577 654.353 556.695 654.353 557.514V563H655.367V553.484H654.041L652.182 558.697C651.961 559.36 651.753 560.036 651.506 560.712H651.454C651.22 560.036 650.986 559.36 650.752 558.697L648.893 553.484H647.567V563ZM660.602 563.182C662.318 563.182 663.826 561.83 663.826 559.503C663.826 557.163 662.318 555.811 660.602 555.811C658.886 555.811 657.365 557.163 657.365 559.503C657.365 561.83 658.886 563.182 660.602 563.182ZM660.602 562.285C659.328 562.285 658.47 561.167 658.47 559.503C658.47 557.826 659.328 556.695 660.602 556.695C661.863 556.695 662.734 557.826 662.734 559.503C662.734 561.167 661.863 562.285 660.602 562.285ZM668.098 563.182C668.969 563.182 669.723 562.714 670.282 562.155H670.308L670.412 563H671.283V552.665H670.217V555.408L670.269 556.63C669.645 556.11 669.099 555.811 668.267 555.811C666.642 555.811 665.199 557.228 665.199 559.503C665.199 561.856 666.343 563.182 668.098 563.182ZM668.319 562.285C667.032 562.285 666.304 561.219 666.304 559.49C666.304 557.852 667.24 556.708 668.423 556.708C669.034 556.708 669.593 556.916 670.217 557.475V561.271C669.606 561.947 669.008 562.285 668.319 562.285ZM676.525 563.182C677.487 563.182 678.215 562.857 678.813 562.467L678.423 561.752C677.903 562.103 677.344 562.324 676.642 562.324C675.251 562.324 674.302 561.284 674.237 559.737H679.047C679.073 559.555 679.099 559.321 679.099 559.1C679.099 557.072 678.085 555.811 676.317 555.811C674.718 555.811 673.184 557.215 673.184 559.503C673.184 561.817 674.666 563.182 676.525 563.182ZM674.224 558.957C674.38 557.501 675.303 556.669 676.33 556.669C677.474 556.669 678.15 557.462 678.15 558.957H674.224ZM682.022 563.182C682.321 563.182 682.49 563.13 682.646 563.078L682.503 562.259C682.36 562.285 682.308 562.285 682.243 562.285C682.061 562.285 681.918 562.142 681.918 561.791V552.665H680.865V561.713C680.865 562.662 681.203 563.182 682.022 563.182ZM686.302 563.182C687.927 563.182 688.798 562.246 688.798 561.115C688.798 559.776 687.667 559.373 686.627 558.983C685.834 558.684 685.093 558.411 685.093 557.722C685.093 557.15 685.535 556.643 686.471 556.643C687.108 556.643 687.602 556.916 688.083 557.267L688.603 556.591C688.07 556.149 687.303 555.811 686.458 555.811C684.95 555.811 684.079 556.682 684.079 557.761C684.079 558.97 685.158 559.425 686.146 559.789C686.939 560.088 687.784 560.426 687.784 561.18C687.784 561.817 687.303 562.337 686.328 562.337C685.457 562.337 684.833 561.986 684.222 561.492L683.689 562.207C684.352 562.753 685.288 563.182 686.302 563.182Z" fill="#5176AE"/>
<path d="M697.549 487H698.524V481.514C698.524 480.695 698.446 479.577 698.381 478.758H698.433L699.187 480.916L701.059 486.025H701.813L703.672 480.916L704.426 478.758H704.478C704.413 479.577 704.335 480.695 704.335 481.514V487H705.349V477.484H704.023L702.164 482.697C701.943 483.36 701.735 484.036 701.488 484.712H701.436C701.202 484.036 700.968 483.36 700.734 482.697L698.875 477.484H697.549V487ZM710.584 487.182C712.3 487.182 713.808 485.83 713.808 483.503C713.808 481.163 712.3 479.811 710.584 479.811C708.868 479.811 707.347 481.163 707.347 483.503C707.347 485.83 708.868 487.182 710.584 487.182ZM710.584 486.285C709.31 486.285 708.452 485.167 708.452 483.503C708.452 481.826 709.31 480.695 710.584 480.695C711.845 480.695 712.716 481.826 712.716 483.503C712.716 485.167 711.845 486.285 710.584 486.285ZM718.079 487.182C718.95 487.182 719.704 486.714 720.263 486.155H720.289L720.393 487H721.264V476.665H720.198V479.408L720.25 480.63C719.626 480.11 719.08 479.811 718.248 479.811C716.623 479.811 715.18 481.228 715.18 483.503C715.18 485.856 716.324 487.182 718.079 487.182ZM718.3 486.285C717.013 486.285 716.285 485.219 716.285 483.49C716.285 481.852 717.221 480.708 718.404 480.708C719.015 480.708 719.574 480.916 720.198 481.475V485.271C719.587 485.947 718.989 486.285 718.3 486.285ZM726.506 487.182C727.468 487.182 728.196 486.857 728.794 486.467L728.404 485.752C727.884 486.103 727.325 486.324 726.623 486.324C725.232 486.324 724.283 485.284 724.218 483.737H729.028C729.054 483.555 729.08 483.321 729.08 483.1C729.08 481.072 728.066 479.811 726.298 479.811C724.699 479.811 723.165 481.215 723.165 483.503C723.165 485.817 724.647 487.182 726.506 487.182ZM724.205 482.957C724.361 481.501 725.284 480.669 726.311 480.669C727.455 480.669 728.131 481.462 728.131 482.957H724.205ZM732.003 487.182C732.302 487.182 732.471 487.13 732.627 487.078L732.484 486.259C732.341 486.285 732.289 486.285 732.224 486.285C732.042 486.285 731.899 486.142 731.899 485.791V476.665H730.846V485.713C730.846 486.662 731.184 487.182 732.003 487.182ZM736.284 487.182C737.909 487.182 738.78 486.246 738.78 485.115C738.78 483.776 737.649 483.373 736.609 482.983C735.816 482.684 735.075 482.411 735.075 481.722C735.075 481.15 735.517 480.643 736.453 480.643C737.09 480.643 737.584 480.916 738.065 481.267L738.585 480.591C738.052 480.149 737.285 479.811 736.44 479.811C734.932 479.811 734.061 480.682 734.061 481.761C734.061 482.97 735.14 483.425 736.128 483.789C736.921 484.088 737.766 484.426 737.766 485.18C737.766 485.817 737.285 486.337 736.31 486.337C735.439 486.337 734.815 485.986 734.204 485.492L733.671 486.207C734.334 486.753 735.27 487.182 736.284 487.182ZM746.984 487H748.05V483.152H749.675C751.768 483.152 753.159 482.229 753.159 480.253C753.159 478.199 751.755 477.484 749.623 477.484H746.984V487ZM748.05 482.268V478.368H749.467C751.209 478.368 752.08 478.81 752.08 480.253C752.08 481.657 751.248 482.268 749.519 482.268H748.05ZM755.044 490.068C756.409 490.068 757.137 489.002 757.605 487.663L760.27 479.98H759.23L757.917 483.997C757.735 484.621 757.514 485.336 757.319 485.986H757.254C757.02 485.336 756.773 484.621 756.552 483.997L755.057 479.98H753.965L756.799 487.039L756.63 487.598C756.318 488.508 755.811 489.184 754.992 489.184C754.797 489.184 754.589 489.132 754.446 489.08L754.238 489.925C754.459 490.016 754.732 490.068 755.044 490.068ZM763.802 487.182C764.205 487.182 764.66 487.052 765.063 486.909L764.842 486.116C764.621 486.22 764.283 486.311 764.036 486.311C763.178 486.311 762.918 485.791 762.918 484.933V480.851H764.855V479.98H762.918V477.991H762.034L761.917 479.98L760.812 480.058V480.851H761.865V484.894C761.865 486.259 762.346 487.182 763.802 487.182ZM766.482 487H767.535V481.865C768.276 481.111 768.796 480.734 769.537 480.734C770.525 480.734 770.941 481.332 770.941 482.684V487H771.994V482.541C771.994 480.747 771.318 479.811 769.849 479.811C768.887 479.811 768.172 480.344 767.509 481.007L767.535 479.525V476.665H766.482V487ZM776.993 487.182C778.709 487.182 780.217 485.83 780.217 483.503C780.217 481.163 778.709 479.811 776.993 479.811C775.277 479.811 773.756 481.163 773.756 483.503C773.756 485.83 775.277 487.182 776.993 487.182ZM776.993 486.285C775.719 486.285 774.861 485.167 774.861 483.503C774.861 481.826 775.719 480.695 776.993 480.695C778.254 480.695 779.125 481.826 779.125 483.503C779.125 485.167 778.254 486.285 776.993 486.285ZM782.122 487H783.175V481.865C783.916 481.111 784.436 480.734 785.177 480.734C786.165 480.734 786.581 481.332 786.581 482.684V487H787.634V482.541C787.634 480.747 786.958 479.811 785.489 479.811C784.527 479.811 783.799 480.344 783.123 481.02H783.097L782.993 479.98H782.122V487ZM790.097 487H791.163V483.152H792.788C794.881 483.152 796.272 482.229 796.272 480.253C796.272 478.199 794.868 477.484 792.736 477.484H790.097V487ZM791.163 482.268V478.368H792.58C794.322 478.368 795.193 478.81 795.193 480.253C795.193 481.657 794.361 482.268 792.632 482.268H791.163ZM798.131 487H799.184V482.437C799.678 481.202 800.393 480.76 800.991 480.76C801.277 480.76 801.433 480.799 801.667 480.877L801.862 479.954C801.641 479.85 801.433 479.811 801.121 479.811C800.328 479.811 799.626 480.383 799.132 481.267H799.106L799.002 479.98H798.131V487ZM805.57 487.182C807.286 487.182 808.794 485.83 808.794 483.503C808.794 481.163 807.286 479.811 805.57 479.811C803.854 479.811 802.333 481.163 802.333 483.503C802.333 485.83 803.854 487.182 805.57 487.182ZM805.57 486.285C804.296 486.285 803.438 485.167 803.438 483.503C803.438 481.826 804.296 480.695 805.57 480.695C806.831 480.695 807.702 481.826 807.702 483.503C807.702 485.167 806.831 486.285 805.57 486.285ZM813.417 487.182C814.275 487.182 815.068 486.831 815.692 486.285L815.224 485.57C814.769 485.973 814.184 486.285 813.521 486.285C812.169 486.285 811.259 485.167 811.259 483.503C811.259 481.826 812.221 480.695 813.547 480.695C814.119 480.695 814.587 480.968 815.003 481.345L815.549 480.643C815.068 480.201 814.418 479.811 813.495 479.811C811.714 479.811 810.154 481.163 810.154 483.503C810.154 485.83 811.571 487.182 813.417 487.182ZM819.753 487.182C820.715 487.182 821.443 486.857 822.041 486.467L821.651 485.752C821.131 486.103 820.572 486.324 819.87 486.324C818.479 486.324 817.53 485.284 817.465 483.737H822.275C822.301 483.555 822.327 483.321 822.327 483.1C822.327 481.072 821.313 479.811 819.545 479.811C817.946 479.811 816.412 481.215 816.412 483.503C816.412 485.817 817.894 487.182 819.753 487.182ZM817.452 482.957C817.608 481.501 818.531 480.669 819.558 480.669C820.702 480.669 821.378 481.462 821.378 482.957H817.452ZM825.9 487.182C827.525 487.182 828.396 486.246 828.396 485.115C828.396 483.776 827.265 483.373 826.225 482.983C825.432 482.684 824.691 482.411 824.691 481.722C824.691 481.15 825.133 480.643 826.069 480.643C826.706 480.643 827.2 480.916 827.681 481.267L828.201 480.591C827.668 480.149 826.901 479.811 826.056 479.811C824.548 479.811 823.677 480.682 823.677 481.761C823.677 482.97 824.756 483.425 825.744 483.789C826.537 484.088 827.382 484.426 827.382 485.18C827.382 485.817 826.901 486.337 825.926 486.337C825.055 486.337 824.431 485.986 823.82 485.492L823.287 486.207C823.95 486.753 824.886 487.182 825.9 487.182ZM831.918 487.182C833.543 487.182 834.414 486.246 834.414 485.115C834.414 483.776 833.283 483.373 832.243 482.983C831.45 482.684 830.709 482.411 830.709 481.722C830.709 481.15 831.151 480.643 832.087 480.643C832.724 480.643 833.218 480.916 833.699 481.267L834.219 480.591C833.686 480.149 832.919 479.811 832.074 479.811C830.566 479.811 829.695 480.682 829.695 481.761C829.695 482.97 830.774 483.425 831.762 483.789C832.555 484.088 833.4 484.426 833.4 485.18C833.4 485.817 832.919 486.337 831.944 486.337C831.073 486.337 830.449 485.986 829.838 485.492L829.305 486.207C829.968 486.753 830.904 487.182 831.918 487.182ZM786.886 544H787.952V540.152H789.577C791.67 540.152 793.061 539.229 793.061 537.253C793.061 535.199 791.657 534.484 789.525 534.484H786.886V544ZM787.952 539.268V535.368H789.369C791.111 535.368 791.982 535.81 791.982 537.253C791.982 538.657 791.15 539.268 789.421 539.268H787.952ZM794.945 547.068C796.31 547.068 797.038 546.002 797.506 544.663L800.171 536.98H799.131L797.818 540.997C797.636 541.621 797.415 542.336 797.22 542.986H797.155C796.921 542.336 796.674 541.621 796.453 540.997L794.958 536.98H793.866L796.7 544.039L796.531 544.598C796.219 545.508 795.712 546.184 794.893 546.184C794.698 546.184 794.49 546.132 794.347 546.08L794.139 546.925C794.36 547.016 794.633 547.068 794.945 547.068ZM803.704 544.182C804.107 544.182 804.562 544.052 804.965 543.909L804.744 543.116C804.523 543.22 804.185 543.311 803.938 543.311C803.08 543.311 802.82 542.791 802.82 541.933V537.851H804.757V536.98H802.82V534.991H801.936L801.819 536.98L800.714 537.058V537.851H801.767V541.894C801.767 543.259 802.248 544.182 803.704 544.182ZM806.383 544H807.436V538.865C808.177 538.111 808.697 537.734 809.438 537.734C810.426 537.734 810.842 538.332 810.842 539.684V544H811.895V539.541C811.895 537.747 811.219 536.811 809.75 536.811C808.788 536.811 808.073 537.344 807.41 538.007L807.436 536.525V533.665H806.383V544ZM816.894 544.182C818.61 544.182 820.118 542.83 820.118 540.503C820.118 538.163 818.61 536.811 816.894 536.811C815.178 536.811 813.657 538.163 813.657 540.503C813.657 542.83 815.178 544.182 816.894 544.182ZM816.894 543.285C815.62 543.285 814.762 542.167 814.762 540.503C814.762 538.826 815.62 537.695 816.894 537.695C818.155 537.695 819.026 538.826 819.026 540.503C819.026 542.167 818.155 543.285 816.894 543.285ZM822.024 544H823.077V538.865C823.818 538.111 824.338 537.734 825.079 537.734C826.067 537.734 826.483 538.332 826.483 539.684V544H827.536V539.541C827.536 537.747 826.86 536.811 825.391 536.811C824.429 536.811 823.701 537.344 823.025 538.02H822.999L822.895 536.98H822.024V544ZM829.999 544H831.065V540.152H832.69C834.783 540.152 836.174 539.229 836.174 537.253C836.174 535.199 834.77 534.484 832.638 534.484H829.999V544ZM831.065 539.268V535.368H832.482C834.224 535.368 835.095 535.81 835.095 537.253C835.095 538.657 834.263 539.268 832.534 539.268H831.065ZM838.033 544H839.086V539.437C839.58 538.202 840.295 537.76 840.893 537.76C841.179 537.76 841.335 537.799 841.569 537.877L841.764 536.954C841.543 536.85 841.335 536.811 841.023 536.811C840.23 536.811 839.528 537.383 839.034 538.267H839.008L838.904 536.98H838.033V544ZM845.472 544.182C847.188 544.182 848.696 542.83 848.696 540.503C848.696 538.163 847.188 536.811 845.472 536.811C843.756 536.811 842.235 538.163 842.235 540.503C842.235 542.83 843.756 544.182 845.472 544.182ZM845.472 543.285C844.198 543.285 843.34 542.167 843.34 540.503C843.34 538.826 844.198 537.695 845.472 537.695C846.733 537.695 847.604 538.826 847.604 540.503C847.604 542.167 846.733 543.285 845.472 543.285ZM853.318 544.182C854.176 544.182 854.969 543.831 855.593 543.285L855.125 542.57C854.67 542.973 854.085 543.285 853.422 543.285C852.07 543.285 851.16 542.167 851.16 540.503C851.16 538.826 852.122 537.695 853.448 537.695C854.02 537.695 854.488 537.968 854.904 538.345L855.45 537.643C854.969 537.201 854.319 536.811 853.396 536.811C851.615 536.811 850.055 538.163 850.055 540.503C850.055 542.83 851.472 544.182 853.318 544.182ZM859.655 544.182C860.617 544.182 861.345 543.857 861.943 543.467L861.553 542.752C861.033 543.103 860.474 543.324 859.772 543.324C858.381 543.324 857.432 542.284 857.367 540.737H862.177C862.203 540.555 862.229 540.321 862.229 540.1C862.229 538.072 861.215 536.811 859.447 536.811C857.848 536.811 856.314 538.215 856.314 540.503C856.314 542.817 857.796 544.182 859.655 544.182ZM857.354 539.957C857.51 538.501 858.433 537.669 859.46 537.669C860.604 537.669 861.28 538.462 861.28 539.957H857.354ZM865.801 544.182C867.426 544.182 868.297 543.246 868.297 542.115C868.297 540.776 867.166 540.373 866.126 539.983C865.333 539.684 864.592 539.411 864.592 538.722C864.592 538.15 865.034 537.643 865.97 537.643C866.607 537.643 867.101 537.916 867.582 538.267L868.102 537.591C867.569 537.149 866.802 536.811 865.957 536.811C864.449 536.811 863.578 537.682 863.578 538.761C863.578 539.97 864.657 540.425 865.645 540.789C866.438 541.088 867.283 541.426 867.283 542.18C867.283 542.817 866.802 543.337 865.827 543.337C864.956 543.337 864.332 542.986 863.721 542.492L863.188 543.207C863.851 543.753 864.787 544.182 865.801 544.182ZM871.819 544.182C873.444 544.182 874.315 543.246 874.315 542.115C874.315 540.776 873.184 540.373 872.144 539.983C871.351 539.684 870.61 539.411 870.61 538.722C870.61 538.15 871.052 537.643 871.988 537.643C872.625 537.643 873.119 537.916 873.6 538.267L874.12 537.591C873.587 537.149 872.82 536.811 871.975 536.811C870.467 536.811 869.596 537.682 869.596 538.761C869.596 539.97 870.675 540.425 871.663 540.789C872.456 541.088 873.301 541.426 873.301 542.18C873.301 542.817 872.82 543.337 871.845 543.337C870.974 543.337 870.35 542.986 869.739 542.492L869.206 543.207C869.869 543.753 870.805 544.182 871.819 544.182ZM701.306 563H702.281V557.514C702.281 556.695 702.203 555.577 702.138 554.758H702.19L702.944 556.916L704.816 562.025H705.57L707.429 556.916L708.183 554.758H708.235C708.17 555.577 708.092 556.695 708.092 557.514V563H709.106V553.484H707.78L705.921 558.697C705.7 559.36 705.492 560.036 705.245 560.712H705.193C704.959 560.036 704.725 559.36 704.491 558.697L702.632 553.484H701.306V563ZM714.342 563.182C716.058 563.182 717.566 561.83 717.566 559.503C717.566 557.163 716.058 555.811 714.342 555.811C712.626 555.811 711.105 557.163 711.105 559.503C711.105 561.83 712.626 563.182 714.342 563.182ZM714.342 562.285C713.068 562.285 712.21 561.167 712.21 559.503C712.21 557.826 713.068 556.695 714.342 556.695C715.603 556.695 716.474 557.826 716.474 559.503C716.474 561.167 715.603 562.285 714.342 562.285ZM721.837 563.182C722.708 563.182 723.462 562.714 724.021 562.155H724.047L724.151 563H725.022V552.665H723.956V555.408L724.008 556.63C723.384 556.11 722.838 555.811 722.006 555.811C720.381 555.811 718.938 557.228 718.938 559.503C718.938 561.856 720.082 563.182 721.837 563.182ZM722.058 562.285C720.771 562.285 720.043 561.219 720.043 559.49C720.043 557.852 720.979 556.708 722.162 556.708C722.773 556.708 723.332 556.916 723.956 557.475V561.271C723.345 561.947 722.747 562.285 722.058 562.285ZM730.264 563.182C731.226 563.182 731.954 562.857 732.552 562.467L732.162 561.752C731.642 562.103 731.083 562.324 730.381 562.324C728.99 562.324 728.041 561.284 727.976 559.737H732.786C732.812 559.555 732.838 559.321 732.838 559.1C732.838 557.072 731.824 555.811 730.056 555.811C728.457 555.811 726.923 557.215 726.923 559.503C726.923 561.817 728.405 563.182 730.264 563.182ZM727.963 558.957C728.119 557.501 729.042 556.669 730.069 556.669C731.213 556.669 731.889 557.462 731.889 558.957H727.963ZM735.761 563.182C736.06 563.182 736.229 563.13 736.385 563.078L736.242 562.259C736.099 562.285 736.047 562.285 735.982 562.285C735.8 562.285 735.657 562.142 735.657 561.791V552.665H734.604V561.713C734.604 562.662 734.942 563.182 735.761 563.182ZM740.042 563.182C741.667 563.182 742.538 562.246 742.538 561.115C742.538 559.776 741.407 559.373 740.367 558.983C739.574 558.684 738.833 558.411 738.833 557.722C738.833 557.15 739.275 556.643 740.211 556.643C740.848 556.643 741.342 556.916 741.823 557.267L742.343 556.591C741.81 556.149 741.043 555.811 740.198 555.811C738.69 555.811 737.819 556.682 737.819 557.761C737.819 558.97 738.898 559.425 739.886 559.789C740.679 560.088 741.524 560.426 741.524 561.18C741.524 561.817 741.043 562.337 740.068 562.337C739.197 562.337 738.573 561.986 737.962 561.492L737.429 562.207C738.092 562.753 739.028 563.182 740.042 563.182Z" fill="#0D8A6C"/>
<path d="M877.938 480.604H878.627L878.822 478.251L878.848 477.003H877.717L877.743 478.251L877.938 480.604ZM880.382 480.604H881.045L881.253 478.251L881.279 477.003H880.135L880.161 478.251L880.382 480.604ZM882.567 487.182C883.009 487.182 883.373 486.831 883.373 486.337C883.373 485.817 883.009 485.479 882.567 485.479C882.138 485.479 881.774 485.817 881.774 486.337C881.774 486.831 882.138 487.182 882.567 487.182ZM884.446 489.327H885.239L889.243 476.717H888.463L884.446 489.327ZM622.379 506.182C622.678 506.182 622.847 506.13 623.003 506.078L622.86 505.259C622.717 505.285 622.665 505.285 622.6 505.285C622.418 505.285 622.275 505.142 622.275 504.791V495.665H621.222V504.713C621.222 505.662 621.56 506.182 622.379 506.182ZM624.853 506H625.906V498.98H624.853V506ZM625.386 497.472C625.815 497.472 626.127 497.199 626.127 496.731C626.127 496.302 625.815 496.016 625.386 496.016C624.957 496.016 624.658 496.302 624.658 496.731C624.658 497.199 624.957 497.472 625.386 497.472ZM631.347 506.182C632.972 506.182 634.415 504.791 634.415 502.386C634.415 500.215 633.44 498.811 631.607 498.811C630.814 498.811 630.021 499.253 629.358 499.825L629.397 498.525V495.665H628.344V506H629.189L629.293 505.285H629.332C629.956 505.844 630.697 506.182 631.347 506.182ZM631.204 505.285C630.723 505.285 630.047 505.077 629.397 504.518V500.709C630.099 500.059 630.749 499.708 631.373 499.708C632.764 499.708 633.31 500.8 633.31 502.399C633.31 504.18 632.413 505.285 631.204 505.285ZM635.237 508.327H636.03L640.034 495.717H639.254L635.237 508.327ZM641.801 506H642.854V498.98H641.801V506ZM642.334 497.472C642.763 497.472 643.075 497.199 643.075 496.731C643.075 496.302 642.763 496.016 642.334 496.016C641.905 496.016 641.606 496.302 641.606 496.731C641.606 497.199 641.905 497.472 642.334 497.472ZM645.292 506H646.345V500.865C647.086 500.111 647.606 499.734 648.347 499.734C649.335 499.734 649.751 500.332 649.751 501.684V506H650.804V501.541C650.804 499.747 650.128 498.811 648.659 498.811C647.697 498.811 646.969 499.344 646.293 500.02H646.267L646.163 498.98H645.292V506ZM655.529 506.182C656.4 506.182 657.154 505.714 657.713 505.155H657.739L657.843 506H658.714V495.665H657.648V498.408L657.7 499.63C657.076 499.11 656.53 498.811 655.698 498.811C654.073 498.811 652.63 500.228 652.63 502.503C652.63 504.856 653.774 506.182 655.529 506.182ZM655.75 505.285C654.463 505.285 653.735 504.219 653.735 502.49C653.735 500.852 654.671 499.708 655.854 499.708C656.465 499.708 657.024 499.916 657.648 500.475V504.271C657.037 504.947 656.439 505.285 655.75 505.285ZM663.956 506.182C664.918 506.182 665.646 505.857 666.244 505.467L665.854 504.752C665.334 505.103 664.775 505.324 664.073 505.324C662.682 505.324 661.733 504.284 661.668 502.737H666.478C666.504 502.555 666.53 502.321 666.53 502.1C666.53 500.072 665.516 498.811 663.748 498.811C662.149 498.811 660.615 500.215 660.615 502.503C660.615 504.817 662.097 506.182 663.956 506.182ZM661.655 501.957C661.811 500.501 662.734 499.669 663.761 499.669C664.905 499.669 665.581 500.462 665.581 501.957H661.655ZM667.155 506H668.273L669.274 504.297C669.508 503.868 669.742 503.439 670.002 503.036H670.067C670.34 503.439 670.6 503.868 670.834 504.297L671.926 506H673.083L670.756 502.451L672.901 498.98H671.796L670.886 500.579C670.652 500.969 670.444 501.359 670.236 501.762H670.171C669.937 501.359 669.69 500.969 669.469 500.579L668.481 498.98H667.337L669.482 502.347L667.155 506ZM674.673 499.604H675.362L675.557 497.251L675.583 496.003H674.452L674.478 497.251L674.673 499.604ZM677.117 499.604H677.78L677.988 497.251L678.014 496.003H676.87L676.896 497.251L677.117 499.604Z" fill="#983B3B"/>
<path d="M623.939 544.182C624.797 544.182 625.59 543.831 626.214 543.285L625.746 542.57C625.291 542.973 624.706 543.285 624.043 543.285C622.691 543.285 621.781 542.167 621.781 540.503C621.781 538.826 622.743 537.695 624.069 537.695C624.641 537.695 625.109 537.968 625.525 538.345L626.071 537.643C625.59 537.201 624.94 536.811 624.017 536.811C622.236 536.811 620.676 538.163 620.676 540.503C620.676 542.83 622.093 544.182 623.939 544.182ZM630.172 544.182C631.888 544.182 633.396 542.83 633.396 540.503C633.396 538.163 631.888 536.811 630.172 536.811C628.456 536.811 626.935 538.163 626.935 540.503C626.935 542.83 628.456 544.182 630.172 544.182ZM630.172 543.285C628.898 543.285 628.04 542.167 628.04 540.503C628.04 538.826 628.898 537.695 630.172 537.695C631.433 537.695 632.304 538.826 632.304 540.503C632.304 542.167 631.433 543.285 630.172 543.285ZM635.301 544H636.354V538.865C637.095 538.111 637.615 537.734 638.356 537.734C639.344 537.734 639.76 538.332 639.76 539.684V544H640.813V539.541C640.813 537.747 640.137 536.811 638.668 536.811C637.706 536.811 636.978 537.344 636.302 538.02H636.276L636.172 536.98H635.301V544ZM644.979 544.182C646.604 544.182 647.475 543.246 647.475 542.115C647.475 540.776 646.344 540.373 645.304 539.983C644.511 539.684 643.77 539.411 643.77 538.722C643.77 538.15 644.212 537.643 645.148 537.643C645.785 537.643 646.279 537.916 646.76 538.267L647.28 537.591C646.747 537.149 645.98 536.811 645.135 536.811C643.627 536.811 642.756 537.682 642.756 538.761C642.756 539.97 643.835 540.425 644.823 540.789C645.616 541.088 646.461 541.426 646.461 542.18C646.461 542.817 645.98 543.337 645.005 543.337C644.134 543.337 643.51 542.986 642.899 542.492L642.366 543.207C643.029 543.753 643.965 544.182 644.979 544.182ZM650.992 544.182C651.395 544.182 651.85 544.052 652.253 543.909L652.032 543.116C651.811 543.22 651.473 543.311 651.226 543.311C650.368 543.311 650.108 542.791 650.108 541.933V537.851H652.045V536.98H650.108V534.991H649.224L649.107 536.98L648.002 537.058V537.851H649.055V541.894C649.055 543.259 649.536 544.182 650.992 544.182Z" fill="#093576"/>
<path d="M500 632.964H519.5C530.546 632.964 539.5 624.009 539.5 612.964V515.964C539.5 504.918 548.454 495.964 559.5 495.964H579" stroke="#4B1B1B" stroke-width="11" stroke-dasharray="0"/>
<defs>
<linearGradient id="paint0_linear_105_144" x1="540" y1="137" x2="540" y2="897" gradientUnits="userSpaceOnUse">
<stop stop-color="#8C8C8C"/>
<stop offset="0.0001" stop-color="#00C2FF"/>
<stop offset="1" stop-color="#305388"/>
</linearGradient>
<linearGradient id="paint1_linear_105_144" x1="539.5" y1="851" x2="539.5" y2="987" gradientUnits="userSpaceOnUse">
<stop stop-color="#5C5C5C"/>
<stop offset="1" stop-color="#363636"/>
</linearGradient>
</defs>
</svg>
